<svg width="107" height="24" viewBox="0 0 107 24" fill="none" xmlns="http://www.w3.org/2000/svg">
<g filter="url(#filter0_i_1_6)">
<path d="M2 4.007C2 3.45 2.455 3 2.992 3H21.008C21.556 3 22 3.45 22 4.007V17H2V4.007ZM1 19H23V21H1V19Z" fill="#0D99FF"/>
<g clip-path="url(#clip0_1_6)">
<path d="M13.0917 6.10917C13.1708 6.1313 13.2447 6.16879 13.3093 6.21952C13.3739 6.27024 13.4278 6.33319 13.4681 6.40478C13.5083 6.47637 13.5341 6.55519 13.5438 6.63673C13.5536 6.71827 13.5472 6.80093 13.525 6.88L11.6788 13.4579C11.634 13.6175 11.5277 13.7529 11.3831 13.8341C11.2386 13.9153 11.0678 13.9358 10.9081 13.891C10.7485 13.8463 10.6132 13.74 10.532 13.5954C10.4507 13.4509 10.4302 13.28 10.475 13.1204L12.3213 6.54167C12.3434 6.46262 12.381 6.38871 12.4317 6.32417C12.4824 6.25963 12.5454 6.20572 12.617 6.16551C12.6886 6.12531 12.7674 6.09961 12.8489 6.08987C12.9304 6.08013 13.013 6.08654 13.0921 6.10875L13.0917 6.10917ZM10.15 7.79042C10.267 7.90761 10.3328 8.06646 10.3328 8.23208C10.3328 8.39771 10.267 8.55656 10.15 8.67375L8.825 10L10.1508 11.3258C10.268 11.4431 10.3338 11.6021 10.3338 11.7679C10.3338 11.9336 10.2679 12.0926 10.1506 12.2098C10.0334 12.327 9.87438 12.3928 9.7086 12.3928C9.54283 12.3927 9.38386 12.3268 9.26667 12.2096L7.49875 10.4417C7.38171 10.3245 7.31597 10.1656 7.31597 10C7.31597 9.83438 7.38171 9.67552 7.49875 9.55833L9.26625 7.79042C9.32429 7.73234 9.39321 7.68627 9.46906 7.65483C9.54492 7.6234 9.62622 7.60722 9.70833 7.60722C9.79044 7.60722 9.87175 7.6234 9.9476 7.65483C10.0235 7.68627 10.092 7.73234 10.15 7.79042ZM13.85 8.67375C13.7886 8.61653 13.7393 8.54753 13.7052 8.47087C13.671 8.3942 13.6527 8.31144 13.6512 8.22752C13.6497 8.1436 13.6651 8.06024 13.6966 7.98242C13.728 7.9046 13.7748 7.8339 13.8341 7.77455C13.8935 7.7152 13.9642 7.66842 14.042 7.63698C14.1198 7.60555 14.2032 7.59011 14.2871 7.59159C14.371 7.59307 14.4538 7.61144 14.5304 7.6456C14.6071 7.67976 14.6761 7.72901 14.7333 7.79042L16.5013 9.55792C16.6184 9.67512 16.6842 9.83407 16.6842 9.99979C16.6842 10.1655 16.6184 10.3245 16.5013 10.4417L14.7338 12.2096C14.6757 12.2676 14.6068 12.3137 14.531 12.3451C14.4552 12.3766 14.3739 12.3927 14.2918 12.3928C14.2097 12.3928 14.1284 12.3766 14.0526 12.3452C13.9768 12.3138 13.9078 12.2678 13.8498 12.2098C13.7917 12.1518 13.7457 12.0829 13.7143 12.007C13.6828 11.9312 13.6666 11.8499 13.6666 11.7679C13.6666 11.6858 13.6827 11.6045 13.7141 11.5286C13.7455 11.4528 13.7916 11.3839 13.8496 11.3258L15.1754 10L13.85 8.67375Z" fill="white"/>
</g>
</g>
<g filter="url(#filter1_i_1_6)">
<path d="M32.66 7.72V14.368C32.66 14.944 32.492 15.384 32.156 15.688C31.828 15.992 31.364 16.144 30.764 16.144C30.62 16.144 30.448 16.132 30.248 16.108C30.056 16.092 29.868 16.064 29.684 16.024C29.5 15.992 29.352 15.952 29.24 15.904L29.432 14.716H30.02C30.564 14.716 30.836 14.492 30.836 14.044V7.72H32.66ZM38.4928 7.72C38.6448 7.72 38.7768 7.764 38.8888 7.852C39.0088 7.94 39.0888 8.056 39.1288 8.2L41.5288 16H39.6568L37.9648 9.916C37.9328 9.78 37.9008 9.644 37.8688 9.508C37.8368 9.364 37.8088 9.228 37.7848 9.1H37.4608C37.4368 9.228 37.4088 9.364 37.3768 9.508C37.3528 9.644 37.3208 9.78 37.2808 9.916L35.5888 16H33.7048L36.1168 8.2C36.1568 8.056 36.2328 7.94 36.3448 7.852C36.4648 7.764 36.6008 7.72 36.7528 7.72H38.4928ZM39.7648 12.436V13.816H35.4688V12.436H39.7648ZM48.4136 7.72L45.6176 13.372H43.8896L41.0816 7.72H42.9896L44.3816 10.768C44.4536 10.928 44.5136 11.1 44.5616 11.284C44.6096 11.468 44.6536 11.644 44.6936 11.812H44.8136C44.8616 11.644 44.9096 11.468 44.9576 11.284C45.0056 11.1 45.0616 10.928 45.1256 10.768L46.5056 7.72H48.4136ZM45.6656 12.256V16H43.8296V12.256H45.6656ZM51.3332 7.72V16H49.5092V7.72H51.3332ZM56.4931 7.6C57.1491 7.6 57.7011 7.672 58.1491 7.816C58.6051 7.952 58.9691 8.18 59.2411 8.5C59.5211 8.82 59.7251 9.256 59.8531 9.808C59.9811 10.352 60.0451 11.036 60.0451 11.86C60.0451 12.684 59.9811 13.372 59.8531 13.924C59.7251 14.468 59.5211 14.9 59.2411 15.22C58.9691 15.54 58.6051 15.772 58.1491 15.916C57.7011 16.052 57.1491 16.12 56.4931 16.12C55.8611 16.12 55.2811 16.108 54.7531 16.084C54.2251 16.06 53.7211 16.032 53.2411 16L54.0091 14.644C54.3131 14.66 54.6731 14.676 55.0891 14.692C55.5131 14.7 55.9811 14.704 56.4931 14.704C56.9011 14.704 57.2211 14.624 57.4531 14.464C57.6931 14.296 57.8611 14.004 57.9571 13.588C58.0611 13.172 58.1131 12.596 58.1131 11.86C58.1131 11.124 58.0611 10.548 57.9571 10.132C57.8611 9.716 57.6931 9.424 57.4531 9.256C57.2211 9.088 56.9011 9.004 56.4931 9.004C56.0051 9.004 55.5691 9.008 55.1851 9.016C54.8011 9.016 54.4251 9.016 54.0571 9.016L53.2411 7.72C53.7211 7.688 54.2211 7.66 54.7411 7.636C55.2691 7.612 55.8531 7.6 56.4931 7.6ZM55.0771 7.72V16H53.2411V7.72H55.0771ZM63.3765 7.684C63.8245 7.684 64.2765 7.688 64.7325 7.696C65.1885 7.696 65.6365 7.704 66.0765 7.72C66.5165 7.736 66.9285 7.764 67.3125 7.804L67.2285 9.136H64.0485C63.8485 9.136 63.6965 9.188 63.5925 9.292C63.4965 9.396 63.4485 9.548 63.4485 9.748V13.972C63.4485 14.172 63.4965 14.324 63.5925 14.428C63.6965 14.532 63.8485 14.584 64.0485 14.584H67.2285L67.3125 15.916C66.9285 15.948 66.5165 15.976 66.0765 16C65.6365 16.016 65.1885 16.024 64.7325 16.024C64.2765 16.032 63.8245 16.036 63.3765 16.036C62.8485 16.036 62.4205 15.884 62.0925 15.58C61.7725 15.268 61.6125 14.864 61.6125 14.368V9.352C61.6125 8.848 61.7725 8.444 62.0925 8.14C62.4205 7.836 62.8485 7.684 63.3765 7.684ZM61.8285 11.044H66.7845V12.34H61.8285V11.044ZM75.606 7.72L73.35 15.496C73.31 15.64 73.23 15.76 73.11 15.856C72.998 15.952 72.862 16 72.702 16H71.022C70.854 16 70.71 15.952 70.59 15.856C70.478 15.76 70.406 15.64 70.374 15.496L68.106 7.72H70.002L71.514 13.696C71.546 13.848 71.578 14.004 71.61 14.164C71.65 14.316 71.682 14.468 71.706 14.62H72.018C72.042 14.468 72.07 14.312 72.102 14.152C72.142 13.992 72.182 13.836 72.222 13.684L73.722 7.72H75.606ZM80.4618 7.72V16H78.6258V7.72H80.4618ZM82.9578 7.72V9.16H76.1418V7.72H82.9578ZM85.9286 7.684C86.3766 7.684 86.8286 7.688 87.2846 7.696C87.7406 7.696 88.1886 7.704 88.6286 7.72C89.0686 7.736 89.4806 7.764 89.8646 7.804L89.7806 9.136H86.6006C86.4006 9.136 86.2486 9.188 86.1446 9.292C86.0486 9.396 86.0006 9.548 86.0006 9.748V13.972C86.0006 14.172 86.0486 14.324 86.1446 14.428C86.2486 14.532 86.4006 14.584 86.6006 14.584H89.7806L89.8646 15.916C89.4806 15.948 89.0686 15.976 88.6286 16C88.1886 16.016 87.7406 16.024 87.2846 16.024C86.8286 16.032 86.3766 16.036 85.9286 16.036C85.4006 16.036 84.9726 15.884 84.6446 15.58C84.3246 15.268 84.1646 14.864 84.1646 14.368V9.352C84.1646 8.848 84.3246 8.444 84.6446 8.14C84.9726 7.836 85.4006 7.684 85.9286 7.684ZM84.3806 11.044H89.3366V12.34H84.3806V11.044ZM94.56 7.576C94.952 7.576 95.284 7.588 95.556 7.612C95.836 7.628 96.092 7.656 96.324 7.696C96.556 7.736 96.796 7.792 97.044 7.864L96.9 9.208C96.636 9.192 96.392 9.18 96.168 9.172C95.952 9.164 95.716 9.16 95.46 9.16C95.212 9.152 94.912 9.148 94.56 9.148C94.152 9.148 93.832 9.228 93.6 9.388C93.376 9.548 93.216 9.828 93.12 10.228C93.024 10.62 92.976 11.164 92.976 11.86C92.976 12.556 93.024 13.104 93.12 13.504C93.216 13.896 93.376 14.172 93.6 14.332C93.832 14.492 94.152 14.572 94.56 14.572C95.112 14.572 95.576 14.564 95.952 14.548C96.328 14.532 96.7 14.504 97.068 14.464L97.224 15.808C96.84 15.928 96.448 16.012 96.048 16.06C95.648 16.116 95.152 16.144 94.56 16.144C93.704 16.144 93.016 16.008 92.496 15.736C91.984 15.456 91.612 15.004 91.38 14.38C91.156 13.756 91.044 12.916 91.044 11.86C91.044 10.804 91.156 9.964 91.38 9.34C91.612 8.716 91.984 8.268 92.496 7.996C93.016 7.716 93.704 7.576 94.56 7.576ZM100.463 7.72V16H98.6267V7.72H100.463ZM103.535 10.9V12.28H100.367V10.9H103.535ZM105.239 7.72V16H103.403V7.72H105.239Z" fill="#0D99FF"/>
</g>
<defs>
<filter id="filter0_i_1_6" x="0" y="0" width="24" height="28" filterUnits="userSpaceOnUse" color-interpolation-filters="sRGB">
<feFlood flood-opacity="0" result="BackgroundImageFix"/>
<feBlend mode="normal" in="SourceGraphic" in2="BackgroundImageFix" result="shape"/>
<feColorMatrix in="SourceAlpha" type="matrix" values="0 0 0 0 0 0 0 0 0 0 0 0 0 0 0 0 0 0 127 0" result="hardAlpha"/>
<feOffset dy="4"/>
<feGaussianBlur stdDeviation="2"/>
<feComposite in2="hardAlpha" operator="arithmetic" k2="-1" k3="1"/>
<feColorMatrix type="matrix" values="0 0 0 0 0 0 0 0 0 0 0 0 0 0 0 0 0 0 0.1 0"/>
<feBlend mode="normal" in2="shape" result="effect1_innerShadow_1_6"/>
</filter>
<filter id="filter1_i_1_6" x="29.24" y="7.576" width="79.9987" height="12.568" filterUnits="userSpaceOnUse" color-interpolation-filters="sRGB">
<feFlood flood-opacity="0" result="BackgroundImageFix"/>
<feBlend mode="normal" in="SourceGraphic" in2="BackgroundImageFix" result="shape"/>
<feColorMatrix in="SourceAlpha" type="matrix" values="0 0 0 0 0 0 0 0 0 0 0 0 0 0 0 0 0 0 127 0" result="hardAlpha"/>
<feOffset dx="4" dy="4"/>
<feGaussianBlur stdDeviation="5"/>
<feComposite in2="hardAlpha" operator="arithmetic" k2="-1" k3="1"/>
<feColorMatrix type="matrix" values="0 0 0 0 0.117647 0 0 0 0 0.117647 0 0 0 0 0.117647 0 0 0 0.1 0"/>
<feBlend mode="normal" in2="shape" result="effect1_innerShadow_1_6"/>
</filter>
<clipPath id="clip0_1_6">
<rect width="10" height="10" fill="white" transform="translate(7 5)"/>
</clipPath>
</defs>
</svg>
